<svg width="512" height="512" viewBox="0 0 512 512" fill="none" xmlns="http://www.w3.org/2000/svg">
<rect width="512" height="512" rx="60" fill="white"/>
<path d="M244.464 455.602C217.973 455.602 193.612 452.051 171.382 444.949C149.152 437.918 128.555 427.122 109.592 412.563V369.203C116.624 374.743 125.217 379.892 135.374 384.651C145.53 389.409 156.609 393.564 168.612 397.115C180.686 400.666 193.186 403.436 206.112 405.425C219.038 407.413 231.822 408.408 244.464 408.408C261.297 408.408 278.271 406.668 295.388 403.188C312.575 399.778 328.484 395.091 343.115 389.125C357.817 383.23 369.855 376.589 379.23 369.203V412.562C360.267 427.122 339.67 437.918 317.44 444.949C295.21 452.051 270.885 455.602 244.464 455.602Z" fill="#CBCBCB"/>
<path d="M254.599 339.064L218.591 339.064L218.591 239.561H254.599L254.599 339.064Z" fill="#CBCBCB"/>
<path d="M427.085 159.534V207.545H294.415V159.534H427.085Z" fill="black"/>
<path d="M132.517 218.676C123.142 218.676 115.093 215.362 108.369 208.733C101.741 202.009 98.4261 193.96 98.4261 184.585C98.4261 175.305 101.741 167.35 108.369 160.722C115.093 154.093 123.142 150.778 132.517 150.778C141.608 150.778 149.563 154.093 156.381 160.722C163.199 167.35 166.608 175.305 166.608 184.585C166.608 190.835 164.998 196.564 161.778 201.773C158.653 206.886 154.534 211.006 149.42 214.131C144.307 217.161 138.672 218.676 132.517 218.676Z" fill="black"/>
</svg>
